<svg width="1000" height="358" viewBox="0 0 1000 358" fill="none" xmlns="http://www.w3.org/2000/svg">
<g clip-path="url(#clip0_2382_7587)">
<g clip-path="url(#clip1_2382_7587)">
<g clip-path="url(#clip2_2382_7587)">
<g clip-path="url(#clip3_2382_7587)">
<path d="M395.561 9.97156C395.561 4.46442 393.048 0 389.948 0C386.847 0 384.334 4.46442 384.334 9.97156V348.547C384.334 354.054 386.847 358.518 389.948 358.518C393.048 358.518 395.561 354.054 395.561 348.547V9.97156Z" fill="white"/>
<g clip-path="url(#clip4_2382_7587)">
<g clip-path="url(#clip5_2382_7587)">
<g clip-path="url(#clip6_2382_7587)">
<g clip-path="url(#clip7_2382_7587)">
<path d="M424.951 129.762L444.492 9.77513H470.032L489.572 129.762H470.717L467.289 105.936V106.279H445.863L442.435 129.762H424.951ZM448.091 89.9947H465.061L456.662 30.6871H456.319L448.091 89.9947ZM524.883 131.476C515.856 131.476 508.976 128.905 504.245 123.762C499.49 118.62 497.115 111.363 497.115 101.993V37.5434C497.115 28.1742 499.49 20.9167 504.245 15.7745C508.976 10.6322 515.856 8.06104 524.883 8.06104C533.909 8.06104 540.79 10.6322 545.521 15.7745C550.275 20.9167 552.651 28.1742 552.651 37.5434V50.2277H534.825V36.3436C534.825 28.9147 531.681 25.202 525.397 25.202C519.113 25.202 515.97 28.9147 515.97 36.3436V103.365C515.97 110.677 519.113 114.335 525.397 114.335C531.681 114.335 534.825 110.677 534.825 103.365V85.0238H552.651V101.993C552.651 111.363 550.275 118.62 545.521 123.762C540.79 128.905 533.909 131.476 524.883 131.476ZM591.39 131.476C582.247 131.476 575.277 128.87 570.478 123.659C565.678 118.473 563.279 111.02 563.279 101.308V9.77513H582.134V102.679C582.134 106.793 582.967 109.765 584.636 111.592C586.282 113.419 588.647 114.335 591.732 114.335C594.818 114.335 597.194 113.419 598.863 111.592C600.509 109.765 601.331 106.793 601.331 102.679V9.77513H619.501V101.308C619.501 111.02 617.101 118.473 612.302 123.659C607.502 128.87 600.533 131.476 591.39 131.476ZM632.871 129.762V9.77513H659.782L671.781 95.6512H672.123L684.122 9.77513H711.033V129.762H693.207V38.9147H692.864L679.151 129.762H663.382L649.669 38.9147H649.326V129.762H632.871ZM725.089 129.762V9.77513H776.512V26.9161H743.944V58.6268H769.827V75.7677H743.944V112.621H776.512V129.762H725.089ZM787.311 129.762V9.77513H810.965L829.306 81.5956H829.649V9.77513H846.447V129.762H827.077L804.451 42.1715H804.109V129.762H787.311Z" fill="white"/>
<path d="M429.922 263.461V143.475H448.777V192.326H469.003V143.475H487.858V263.461H469.003V209.467H448.777V263.461H429.922ZM496.943 263.461L516.484 143.475H542.024L561.564 263.461H542.709L539.281 239.635V239.978H517.855L514.427 263.461H496.943ZM520.083 223.694H537.053L528.654 164.387H528.311L520.083 223.694ZM570.649 263.461V143.475H594.303L612.644 215.295H612.987V143.475H629.785V263.461H610.416L587.79 175.871H587.447V263.461H570.649ZM643.841 263.461V143.475H672.637C682.007 143.475 689.034 145.987 693.721 151.017C698.407 156.046 700.749 163.416 700.749 173.128V233.807C700.749 243.519 698.407 250.89 693.721 255.919C689.034 260.948 682.007 263.461 672.637 263.461H643.841ZM662.696 246.32H672.295C675.38 246.32 677.756 245.405 679.425 243.578C681.071 241.75 681.894 238.778 681.894 234.664V172.271C681.894 168.158 681.071 165.185 679.425 163.358C677.756 161.531 675.38 160.616 672.295 160.616H662.696V246.32ZM727.66 263.461V212.381L704.862 143.475H724.917L737.773 187.527H738.116L750.972 143.475H769.312L746.515 212.381V263.461H727.66ZM777.883 263.461V143.475H804.794L816.793 229.351H817.136L829.134 143.475H856.045V263.461H838.219V172.614H837.876L824.163 263.461H808.394L794.681 172.614H794.338V263.461H777.883ZM865.13 263.461L884.671 143.475H910.211L929.751 263.461H910.896L907.468 239.635V239.978H886.042L882.614 263.461H865.13ZM888.27 223.694H905.24L896.841 164.387H896.498L888.27 223.694ZM938.836 263.461V143.475H962.491L980.831 215.295H981.174V143.475H997.972V263.461H978.603L955.977 175.871H955.634V263.461H938.836Z" fill="white"/>
</g>
</g>
<g clip-path="url(#clip8_2382_7587)">
<g clip-path="url(#clip9_2382_7587)">
<path d="M449.019 320.638V325.218H430.591V340.286H451.997V344.866H424.994V302.352H451.698V306.969H430.591V320.638H449.019ZM459.759 313.271L467.783 337.535L475.616 313.271H481.129L469.804 344.866H465.69L454.245 313.271H459.759ZM499.055 345.452C494.774 345.452 491.29 344.045 488.603 341.231C485.917 338.416 484.573 334.653 484.573 329.942V328.949C484.573 325.816 485.171 323.021 486.367 320.566C487.563 318.102 489.237 316.173 491.39 314.778C493.542 313.391 495.874 312.697 498.386 312.697C502.491 312.697 505.685 314.048 507.965 316.751C510.237 319.454 511.373 323.328 511.373 328.375V330.623H489.979C490.05 333.733 490.959 336.248 492.705 338.169C494.443 340.083 496.656 341.039 499.342 341.039C501.256 341.039 502.874 340.653 504.198 339.879C505.521 339.098 506.677 338.066 507.666 336.782L510.966 339.353C508.319 343.419 504.349 345.452 499.055 345.452ZM498.386 317.134C496.201 317.134 494.371 317.927 492.896 319.513C491.414 321.1 490.497 323.32 490.146 326.175H505.979V325.768C505.82 323.025 505.079 320.901 503.755 319.394C502.432 317.887 500.642 317.134 498.386 317.134ZM532.887 313.103V318.126C532.074 317.991 531.189 317.923 530.232 317.923C526.692 317.923 524.288 319.43 523.021 322.443V344.866H517.615V313.271H522.877L522.961 316.93C524.731 314.108 527.242 312.697 530.495 312.697C531.548 312.697 532.345 312.832 532.887 313.103ZM540.828 313.271L548.708 336.949L556.075 313.271H561.851L549.151 349.745C547.182 354.999 544.056 357.626 539.775 357.626L538.759 357.543L536.738 357.16V352.783L538.197 352.891C540.03 352.891 541.457 352.524 542.478 351.79C543.498 351.049 544.339 349.694 545.001 347.724L546.197 344.519L534.932 313.271H540.828ZM568.596 305.629H573.989V313.271H579.885V317.457H573.989V337.045C573.989 338.305 574.253 339.254 574.779 339.891C575.305 340.521 576.202 340.836 577.469 340.836C578.091 340.836 578.948 340.72 580.041 340.489V344.866C578.614 345.257 577.23 345.452 575.891 345.452C573.475 345.452 571.654 344.723 570.426 343.264C569.206 341.805 568.596 339.732 568.596 337.045V317.457H562.844V313.271H568.596V305.629ZM591.593 300.021V317.098C593.985 314.164 597.098 312.697 600.933 312.697C607.614 312.697 610.982 316.46 611.038 323.986V344.866H605.645V323.962C605.621 321.682 605.098 320 604.078 318.915C603.057 317.823 601.467 317.277 599.306 317.277C597.552 317.277 596.014 317.744 594.69 318.676C593.367 319.609 592.334 320.837 591.593 322.36V344.866H586.199V300.021H591.593ZM624.994 313.271V344.866H619.589V313.271H624.994ZM619.158 304.9C619.158 304.023 619.425 303.281 619.959 302.675C620.493 302.069 621.287 301.766 622.339 301.766C623.391 301.766 624.189 302.069 624.731 302.675C625.273 303.281 625.544 304.023 625.544 304.9C625.544 305.777 625.273 306.506 624.731 307.088C624.189 307.67 623.391 307.961 622.339 307.961C621.287 307.961 620.493 307.67 619.959 307.088C619.425 306.506 619.158 305.777 619.158 304.9ZM633.628 313.271H638.747L638.914 317.241C641.33 314.212 644.483 312.697 648.374 312.697C655.055 312.697 658.423 316.46 658.479 323.986V344.866H653.073V323.962C653.057 321.682 652.539 320 651.519 318.915C650.498 317.823 648.908 317.277 646.747 317.277C644.993 317.277 643.454 317.744 642.131 318.676C640.808 319.609 639.775 320.837 639.034 322.36V344.866H633.628V313.271ZM665.331 328.805C665.331 323.886 666.471 319.972 668.751 317.062C671.032 314.152 674.049 312.697 677.804 312.697C681.655 312.697 684.661 314.056 686.821 316.775L687.084 313.271H692.023V344.113C692.023 348.195 690.811 351.416 688.388 353.776C685.964 356.127 682.707 357.303 678.617 357.303C676.345 357.303 674.117 356.817 671.932 355.844C669.756 354.872 668.094 353.536 666.946 351.838L669.744 348.609C672.064 351.464 674.898 352.891 678.247 352.891C680.87 352.891 682.915 352.153 684.382 350.678C685.857 349.195 686.594 347.11 686.594 344.424V341.709C684.433 344.204 681.484 345.452 677.744 345.452C674.045 345.452 671.051 343.961 668.763 340.98C666.475 338.006 665.331 333.948 665.331 328.805ZM670.772 329.415C670.772 332.979 671.502 335.777 672.961 337.81C674.42 339.851 676.461 340.872 679.084 340.872C682.496 340.872 684.999 339.321 686.594 336.22V321.798C684.936 318.784 682.452 317.277 679.144 317.277C676.521 317.277 674.468 318.298 672.985 320.339C671.51 322.388 670.772 325.413 670.772 329.415ZM721.825 302.352V344.866H716.216V302.352H721.825ZM749.617 336.483C749.617 335.024 749.067 333.892 747.967 333.087C746.867 332.282 744.949 331.584 742.215 330.994C739.48 330.412 737.311 329.714 735.709 328.901C734.099 328.08 732.911 327.103 732.145 325.971C731.372 324.847 730.985 323.504 730.985 321.941C730.985 319.358 732.081 317.17 734.274 315.376C736.466 313.59 739.265 312.697 742.669 312.697C746.249 312.697 749.155 313.622 751.387 315.471C753.611 317.313 754.724 319.677 754.724 322.563H749.294C749.294 321.08 748.668 319.804 747.417 318.736C746.157 317.668 744.574 317.134 742.669 317.134C740.7 317.134 739.161 317.56 738.053 318.413C736.945 319.274 736.391 320.394 736.391 321.774C736.391 323.073 736.905 324.054 737.933 324.716C738.97 325.377 740.835 326.011 743.53 326.617C746.225 327.223 748.409 327.944 750.084 328.782C751.758 329.619 752.997 330.623 753.803 331.795C754.616 332.975 755.023 334.414 755.023 336.112C755.023 338.935 753.89 341.195 751.626 342.893C749.37 344.599 746.444 345.452 742.848 345.452C740.313 345.452 738.073 345.006 736.128 344.113C734.182 343.212 732.659 341.96 731.559 340.358C730.459 338.747 729.909 337.009 729.909 335.144H735.314C735.41 336.953 736.136 338.388 737.491 339.449C738.838 340.509 740.624 341.039 742.848 341.039C744.889 341.039 746.528 340.625 747.764 339.796C748.999 338.974 749.617 337.87 749.617 336.483ZM793.315 328.219H783.305V344.866H777.697V302.352H793.375C798.031 302.352 801.678 303.54 804.317 305.916C806.948 308.292 808.263 311.437 808.263 315.352C808.263 319.474 806.976 322.651 804.401 324.883C801.818 327.107 798.122 328.219 793.315 328.219ZM783.305 306.969V323.639H793.375C796.372 323.639 798.668 322.934 800.263 321.523C801.865 320.111 802.667 318.074 802.667 315.412C802.667 312.876 801.865 310.851 800.263 309.336C798.668 307.814 796.48 307.024 793.697 306.969H783.305ZM812.76 329.164V328.782C812.76 325.688 813.37 322.906 814.59 320.434C815.801 317.955 817.492 316.045 819.66 314.706C821.837 313.367 824.316 312.697 827.099 312.697C831.396 312.697 834.876 314.184 837.539 317.158C840.193 320.139 841.521 324.102 841.521 329.045V329.415C841.521 332.493 840.931 335.255 839.751 337.703C838.571 340.142 836.889 342.044 834.704 343.407C832.512 344.771 829.997 345.452 827.158 345.452C822.877 345.452 819.405 343.961 816.742 340.98C814.087 338.006 812.76 334.067 812.76 329.164ZM818.189 329.415C818.189 332.923 819.002 335.738 820.629 337.858C822.255 339.979 824.432 341.039 827.158 341.039C829.901 341.039 832.081 339.963 833.7 337.81C835.31 335.666 836.116 332.656 836.116 328.782C836.116 325.313 835.294 322.503 833.652 320.351C832.01 318.206 829.825 317.134 827.099 317.134C824.428 317.134 822.275 318.194 820.641 320.315C819.006 322.435 818.189 325.469 818.189 329.415ZM866.682 336.483C866.682 335.024 866.132 333.892 865.032 333.087C863.932 332.282 862.014 331.584 859.28 330.994C856.545 330.412 854.377 329.714 852.774 328.901C851.164 328.08 849.976 327.103 849.21 325.971C848.437 324.847 848.05 323.504 848.05 321.941C848.05 319.358 849.147 317.17 851.339 315.376C853.532 313.59 856.33 312.697 859.734 312.697C863.314 312.697 866.22 313.622 868.452 315.471C870.677 317.313 871.789 319.677 871.789 322.563H866.359C866.359 321.08 865.734 319.804 864.482 318.736C863.222 317.668 861.64 317.134 859.734 317.134C857.765 317.134 856.226 317.56 855.118 318.413C854.01 319.274 853.456 320.394 853.456 321.774C853.456 323.073 853.974 324.054 855.01 324.716C856.039 325.377 857.901 326.011 860.595 326.617C863.29 327.223 865.474 327.944 867.149 328.782C868.823 329.619 870.063 330.623 870.868 331.795C871.681 332.975 872.088 334.414 872.088 336.112C872.088 338.935 870.96 341.195 868.703 342.893C866.439 344.599 863.509 345.452 859.914 345.452C857.378 345.452 855.138 345.006 853.193 344.113C851.247 343.212 849.725 341.96 848.624 340.358C847.524 338.747 846.974 337.009 846.974 335.144H852.38C852.475 336.953 853.201 338.388 854.556 339.449C855.903 340.509 857.689 341.039 859.914 341.039C861.955 341.039 863.593 340.625 864.829 339.796C866.064 338.974 866.682 337.87 866.682 336.483ZM897.512 336.483C897.512 335.024 896.962 333.892 895.862 333.087C894.762 332.282 892.844 331.584 890.11 330.994C887.375 330.412 885.207 329.714 883.604 328.901C881.994 328.08 880.806 327.103 880.04 325.971C879.267 324.847 878.88 323.504 878.88 321.941C878.88 319.358 879.977 317.17 882.169 315.376C884.362 313.59 887.16 312.697 890.564 312.697C894.144 312.697 897.05 313.622 899.282 315.471C901.507 317.313 902.619 319.677 902.619 322.563H897.189C897.189 321.08 896.564 319.804 895.312 318.736C894.052 317.668 892.47 317.134 890.564 317.134C888.595 317.134 887.056 317.56 885.948 318.413C884.84 319.274 884.286 320.394 884.286 321.774C884.286 323.073 884.8 324.054 885.828 324.716C886.865 325.377 888.73 326.011 891.425 326.617C894.12 327.223 896.304 327.944 897.979 328.782C899.653 329.619 900.893 330.623 901.698 331.795C902.511 332.975 902.918 334.414 902.918 336.112C902.918 338.935 901.786 341.195 899.521 342.893C897.265 344.599 894.339 345.452 890.744 345.452C888.208 345.452 885.968 345.006 884.023 344.113C882.077 343.212 880.555 341.96 879.454 340.358C878.354 338.747 877.804 337.009 877.804 335.144H883.209C883.305 336.953 884.031 338.388 885.386 339.449C886.733 340.509 888.519 341.039 890.744 341.039C892.785 341.039 894.423 340.625 895.659 339.796C896.894 338.974 897.512 337.87 897.512 336.483ZM915.809 313.271V344.866H910.416V313.271H915.809ZM909.973 304.9C909.973 304.023 910.24 303.281 910.775 302.675C911.309 302.069 912.102 301.766 913.154 301.766C914.207 301.766 915.004 302.069 915.546 302.675C916.096 303.281 916.371 304.023 916.371 304.9C916.371 305.777 916.096 306.506 915.546 307.088C915.004 307.67 914.207 307.961 913.154 307.961C912.102 307.961 911.309 307.67 910.775 307.088C910.24 306.506 909.973 305.777 909.973 304.9ZM951.196 328.949V329.415C951.196 334.247 950.087 338.125 947.871 341.051C945.655 343.985 942.677 345.452 938.938 345.452C934.943 345.452 931.858 344.041 929.682 341.219L929.418 344.866H924.456V300.021H929.861V316.751C932.037 314.048 935.043 312.697 938.878 312.697C942.713 312.697 945.726 314.144 947.919 317.038C950.103 319.94 951.196 323.91 951.196 328.949ZM945.802 328.805C945.802 325.13 945.089 322.288 943.661 320.279C942.242 318.278 940.201 317.277 937.539 317.277C933.975 317.277 931.416 318.931 929.861 322.24V335.897C931.511 339.214 934.09 340.872 937.598 340.872C940.181 340.872 942.195 339.867 943.638 337.858C945.081 335.857 945.802 332.84 945.802 328.805ZM963.872 300.021V344.866H958.466V300.021H963.872ZM985.613 345.452C981.332 345.452 977.848 344.045 975.161 341.231C972.474 338.416 971.131 334.653 971.131 329.942V328.949C971.131 325.816 971.729 323.021 972.925 320.566C974.121 318.102 975.795 316.173 977.948 314.778C980.1 313.391 982.432 312.697 984.943 312.697C989.049 312.697 992.242 314.048 994.522 316.751C996.795 319.454 997.931 323.328 997.931 328.375V330.623H976.536C976.616 333.733 977.525 336.248 979.263 338.169C981.009 340.083 983.225 341.039 985.912 341.039C987.818 341.039 989.432 340.653 990.755 339.879C992.079 339.098 993.235 338.066 994.223 336.782L997.524 339.353C994.877 343.419 990.907 345.452 985.613 345.452ZM984.943 317.134C982.767 317.134 980.937 317.927 979.454 319.513C977.971 321.1 977.055 323.32 976.704 326.175H992.537V325.768C992.378 323.025 991.636 320.901 990.313 319.394C988.99 317.887 987.2 317.134 984.943 317.134Z" fill="white"/>
</g>
</g>
</g>
</g>
<g clip-path="url(#clip10_2382_7587)">
<g clip-path="url(#clip11_2382_7587)">
<path d="M188.863 239.366L301.98 352.456C301.98 352.456 315.77 366.259 340.325 341.703C364.881 317.148 351.078 303.358 351.078 303.358L248.241 200.521C230.429 205.345 216.429 210.682 211.408 215.717L188.863 239.366Z" fill="white"/>
<path d="M162.979 140.078L91.2967 68.4091L77.6517 36.5839L25.0961 2.19531L0.816406 26.475L35.1918 79.0306L67.017 92.6888L138.187 163.845L153.909 151.199C157.169 147.873 160.153 144.088 162.979 140.078Z" fill="white"/>
<path d="M353.969 63.8082L285.928 93.2935L272.717 61.3369L274.163 45.3126L331.004 20.5333C331.004 20.5333 298.942 0.131559 265.421 7.41415C231.9 14.7099 224.618 16.1428 217.335 38.03C210.052 59.8778 199.851 128.379 164.871 163.359L13.4486 285.125C13.4486 285.125 -12.8161 314.703 13.4749 340.994C39.7658 367.285 69.33 341.007 69.33 341.007L199.865 204.149C221.726 182.288 317.898 170.628 317.898 170.628L301.874 131.849C339.128 113.59 353.969 63.8082 353.969 63.8082ZM57.6568 327.875C49.086 336.459 35.1518 336.459 26.5678 327.875C17.9969 319.291 17.9969 305.383 26.5809 296.799C35.1649 288.202 49.086 288.202 57.6568 296.799C66.2408 305.37 66.2408 319.277 57.6568 327.875Z" fill="white"/>
</g>
</g>
</g>
</g>
</g>
</g>
<defs>
<clipPath id="clip0_2382_7587">
<rect width="1000" height="358" fill="white"/>
</clipPath>
<clipPath id="clip1_2382_7587">
<rect width="1000" height="358" fill="white" transform="translate(-0.605469 0.259277)"/>
</clipPath>
<clipPath id="clip2_2382_7587">
<rect width="997.156" height="358.518" fill="white" transform="translate(0.816406)"/>
</clipPath>
<clipPath id="clip3_2382_7587">
<rect width="997.156" height="358.518" fill="white" transform="translate(0.816406)"/>
</clipPath>
<clipPath id="clip4_2382_7587">
<rect width="573.021" height="356.734" fill="white" transform="translate(424.951 0.891602)"/>
</clipPath>
<clipPath id="clip5_2382_7587">
<rect width="573.021" height="356.734" fill="white" transform="translate(424.951 0.891602)"/>
</clipPath>
<clipPath id="clip6_2382_7587">
<rect width="573.021" height="269.738" fill="white" transform="translate(424.951 0.891602)"/>
</clipPath>
<clipPath id="clip7_2382_7587">
<rect width="573.021" height="269.738" fill="white" transform="translate(424.951 0.891602)"/>
</clipPath>
<clipPath id="clip8_2382_7587">
<rect width="573.021" height="57.6058" fill="white" transform="translate(424.951 300.021)"/>
</clipPath>
<clipPath id="clip9_2382_7587">
<rect width="573.021" height="57.6058" fill="white" transform="translate(424.951 300.021)"/>
</clipPath>
<clipPath id="clip10_2382_7587">
<rect width="354.127" height="354.127" fill="white" transform="translate(0.816406 2.19531)"/>
</clipPath>
<clipPath id="clip11_2382_7587">
<rect width="354.127" height="354.127" fill="white" transform="translate(0.816406 2.19531)"/>
</clipPath>
</defs>
</svg>
