<svg width="0" height="0" class="hidden">
  <symbol fill="none" xmlns="http://www.w3.org/2000/svg" viewBox="0 0 38 39" id="phone">
    <path d="M33.29 21.4605C32.8705 21.4605 32.432 21.3266 32.0124 21.231C31.1629 21.0433 30.3281 20.794 29.5145 20.4852C28.6299 20.1624 27.6575 20.1792 26.7845 20.5322C25.9114 20.8853 25.1994 21.5497 24.7855 22.3976L24.366 23.2582C22.5087 22.222 20.8021 20.935 19.2938 19.4334C17.7965 17.9207 16.5133 16.2091 15.4801 14.3464L16.281 13.8109C17.1264 13.3958 17.7889 12.6817 18.1409 11.8061C18.4929 10.9306 18.5096 9.95534 18.1878 9.06816C17.885 8.25046 17.6366 7.41355 17.4441 6.56291C17.3488 6.14219 17.2725 5.70234 17.2153 5.26248C16.9838 3.91543 16.2803 2.69555 15.2315 1.82253C14.1827 0.949517 12.8576 0.480735 11.4948 0.500607H5.77425C4.95246 0.492868 4.13865 0.662804 3.38823 0.998845C2.63781 1.33489 1.96839 1.82914 1.42555 2.44797C0.882713 3.06679 0.479194 3.79566 0.242465 4.58495C0.0057371 5.37423 -0.0586421 6.20541 0.0537105 7.02189C1.06956 15.0337 4.71791 22.4777 10.4225 28.1781C16.127 33.8785 23.5627 37.5103 31.5548 38.5H32.2794C33.6855 38.5021 35.0432 37.9847 36.0931 37.0466C36.6964 36.5054 37.1783 35.8421 37.507 35.1004C37.8357 34.3586 38.0037 33.5554 37.9999 32.7437V27.0065C37.9766 25.6781 37.4943 24.399 36.6353 23.3876C35.7763 22.3761 34.594 21.695 33.29 21.4605ZM34.2435 32.9349C34.2431 33.2064 34.1851 33.4748 34.0733 33.7221C33.9615 33.9694 33.7985 34.19 33.5951 34.3692C33.3861 34.5602 33.1374 34.7021 32.867 34.7848C32.5966 34.8675 32.3112 34.8889 32.0315 34.8473C24.8902 33.929 18.2569 30.6524 13.178 25.5345C8.09907 20.4165 4.86356 13.7484 3.98181 6.58204C3.95146 6.30191 3.97806 6.01851 4.06 5.74898C4.14193 5.47945 4.27751 5.22937 4.45852 5.01387C4.63721 4.80988 4.85717 4.64639 5.10376 4.53427C5.35035 4.42216 5.61792 4.364 5.88866 4.36365H11.6092C12.0526 4.35376 12.4856 4.4992 12.8337 4.77496C13.1817 5.05071 13.423 5.43951 13.516 5.87445C13.5923 6.39717 13.6877 6.91352 13.8021 7.42349C14.0223 8.4316 14.3155 9.4223 14.6792 10.3877L12.0096 11.6308C11.7814 11.7358 11.5761 11.885 11.4055 12.0699C11.2349 12.2547 11.1024 12.4715 11.0155 12.7078C10.9287 12.9442 10.8893 13.1954 10.8996 13.447C10.9098 13.6987 10.9695 13.9458 11.0753 14.1743C13.8196 20.0697 18.5449 24.8087 24.4232 27.5611C24.8874 27.7523 25.4082 27.7523 25.8724 27.5611C26.1102 27.4758 26.3287 27.3439 26.5153 27.1732C26.7019 27.0025 26.8528 26.7963 26.9593 26.5666L28.1415 23.8893C29.1273 24.2428 30.1334 24.5366 31.1544 24.769C31.6629 24.8837 32.1777 24.9793 32.6989 25.0558C33.1326 25.1491 33.5203 25.3911 33.7952 25.7402C34.0702 26.0892 34.2152 26.5235 34.2053 26.9682L34.2435 32.9349ZM32.451 15.7233C32.9567 15.7233 33.4418 15.5218 33.7994 15.1632C34.157 14.8045 34.3579 14.3181 34.3579 13.8109V6.16131C34.3579 5.65411 34.157 5.16768 33.7994 4.80904C33.4418 4.4504 32.9567 4.24891 32.451 4.24891C31.9453 4.24891 31.4603 4.4504 31.1027 4.80904C30.7451 5.16768 30.5442 5.65411 30.5442 6.16131V13.8109C30.5442 14.3181 30.7451 14.8045 31.1027 15.1632C31.4603 15.5218 31.9453 15.7233 32.451 15.7233ZM24.8236 15.7233C25.3294 15.7233 25.8144 15.5218 26.172 15.1632C26.5296 14.8045 26.7305 14.3181 26.7305 13.8109V6.16131C26.7305 5.65411 26.5296 5.16768 26.172 4.80904C25.8144 4.4504 25.3294 4.24891 24.8236 4.24891C24.3179 4.24891 23.8329 4.4504 23.4753 4.80904C23.1177 5.16768 22.9168 5.65411 22.9168 6.16131V13.8109C22.9168 14.3181 23.1177 14.8045 23.4753 15.1632C23.8329 15.5218 24.3179 15.7233 24.8236 15.7233Z" fill="#CCCCCC"></path>
  </symbol>
  <symbol fill="none" xmlns="http://www.w3.org/2000/svg" viewBox="0 0 52 52" id="step1">
    <path d="M13.0837 5.33341C13.0837 2.46591 10.7845 0.166748 7.91699 0.166748C5.04949 0.166748 2.75032 2.46591 2.75032 5.33341C2.75032 8.20091 5.04949 10.5001 7.91699 10.5001C10.7845 10.5001 13.0837 8.20091 13.0837 5.33341ZM21.3245 6.62508C20.2653 6.62508 19.3612 7.27091 18.9478 8.25258C18.3766 9.68226 17.389 10.9073 16.113 11.7687C14.837 12.6301 13.3315 13.0882 11.792 13.0834H4.04199C1.89783 13.0834 0.166992 14.8142 0.166992 16.9584V23.4167H15.667V17.5784C17.4856 17.0048 19.153 16.0322 20.5475 14.7316C21.942 13.4309 23.0283 11.8352 23.727 10.0609C24.3987 8.40758 23.107 6.62508 21.3245 6.62508ZM44.0836 38.9167C46.9511 38.9167 49.2503 36.6176 49.2503 33.7501C49.2503 30.8826 46.9511 28.5834 44.0836 28.5834C41.2161 28.5834 38.917 30.8826 38.917 33.7501C38.917 36.6176 41.2161 38.9167 44.0836 38.9167ZM47.9586 41.5001H40.2087C36.9537 41.5001 34.1895 39.5109 33.0528 36.6692C32.8672 36.1898 32.5408 35.7778 32.1166 35.4873C31.6924 35.1968 31.1903 35.0415 30.6762 35.0417C28.8937 35.0417 27.602 36.8242 28.2478 38.4776C28.9505 40.2495 30.0381 41.8431 31.432 43.1432C32.8259 44.4433 34.4913 45.4174 36.3078 45.9951V51.8334H51.8078V45.3751C51.8336 43.2309 50.1028 41.5001 47.9586 41.5001ZM39.5628 23.6492C39.5628 23.6492 39.5628 23.6234 39.5887 23.6492C38.2386 23.9975 37.0065 24.7011 36.0206 25.687C35.0347 26.6729 34.3311 27.905 33.9828 29.2551V29.2292C33.6987 30.3401 32.6653 31.1667 31.4512 31.1667C30.0303 31.1667 28.8678 30.0042 28.8678 28.5834C28.8678 28.4542 28.9195 28.2217 28.9195 28.2217C29.4691 25.8692 30.6687 23.7184 32.3815 22.0147C34.0944 20.311 36.2515 19.1229 38.607 18.5859C38.7103 18.5859 38.8137 18.5601 38.917 18.5601C40.3378 18.5601 41.5003 19.7226 41.5003 21.1434C41.5003 22.3317 40.6737 23.3651 39.5628 23.6492ZM41.5003 10.6551C41.5003 11.9726 40.5445 13.0317 39.2786 13.2126C31.0378 14.2201 24.5537 20.7301 23.5462 28.9709C23.4391 29.6076 23.098 30.1813 22.5897 30.5795C22.0814 30.9776 21.4427 31.1714 20.7989 31.1229C20.1551 31.0744 19.5527 30.787 19.1098 30.3172C18.667 29.8473 18.4157 29.229 18.4053 28.5834V28.3509C19.697 17.7076 28.1962 9.28591 38.8653 8.07175H38.8911C40.3378 8.07175 41.5003 9.23425 41.5003 10.6551Z" fill="white"></path>
  </symbol>
  <symbol fill="none" xmlns="http://www.w3.org/2000/svg" viewBox="0 0 50 50" id="step2">
    <path d="M22.5 40H27.5V35H22.5V40ZM25 0C21.717 0 18.4661 0.646644 15.4329 1.90301C12.3998 3.15938 9.6438 5.00087 7.32233 7.32233C2.63392 12.0107 0 18.3696 0 25C0 31.6304 2.63392 37.9893 7.32233 42.6777C9.6438 44.9991 12.3998 46.8406 15.4329 48.097C18.4661 49.3534 21.717 50 25 50C31.6304 50 37.9893 47.3661 42.6777 42.6777C47.3661 37.9893 50 31.6304 50 25C50 21.717 49.3534 18.4661 48.097 15.4329C46.8406 12.3998 44.9991 9.6438 42.6777 7.32233C40.3562 5.00087 37.6002 3.15938 34.5671 1.90301C31.5339 0.646644 28.283 0 25 0ZM25 45C13.975 45 5 36.025 5 25C5 13.975 13.975 5 25 5C36.025 5 45 13.975 45 25C45 36.025 36.025 45 25 45ZM25 10C22.3478 10 19.8043 11.0536 17.9289 12.9289C16.0536 14.8043 15 17.3478 15 20H20C20 18.6739 20.5268 17.4022 21.4645 16.4645C22.4022 15.5268 23.6739 15 25 15C26.3261 15 27.5979 15.5268 28.5355 16.4645C29.4732 17.4022 30 18.6739 30 20C30 25 22.5 24.375 22.5 32.5H27.5C27.5 26.875 35 26.25 35 20C35 17.3478 33.9464 14.8043 32.0711 12.9289C30.1957 11.0536 27.6522 10 25 10Z" fill="white"></path>
  </symbol>
  <symbol fill="none" xmlns="http://www.w3.org/2000/svg" viewBox="0 0 46 50" id="step3">
    <path d="M5.5 50C4.125 50 2.9475 49.51 1.9675 48.53C0.987504 47.55 0.498338 46.3733 0.500004 45V10C0.500004 8.62501 0.990004 7.44751 1.97 6.46751C2.95 5.48751 4.12667 4.99834 5.5 5.00001H8V2.50001C8 1.79167 8.24 1.19751 8.72 0.717508C9.2 0.237508 9.79334 -0.00165802 10.5 8.65052e-06C11.2083 8.65052e-06 11.8025 0.240009 12.2825 0.720009C12.7625 1.20001 13.0017 1.79334 13 2.50001V5.00001H33V2.50001C33 1.79167 33.24 1.19751 33.72 0.717508C34.2 0.237508 34.7933 -0.00165802 35.5 8.65052e-06C36.2083 8.65052e-06 36.8025 0.240009 37.2825 0.720009C37.7625 1.20001 38.0017 1.79334 38 2.50001V5.00001H40.5C41.875 5.00001 43.0525 5.49001 44.0325 6.47001C45.0125 7.45001 45.5017 8.62667 45.5 10V45C45.5 46.375 45.01 47.5525 44.03 48.5325C43.05 49.5125 41.8733 50.0017 40.5 50H5.5ZM5.5 45H40.5V20H5.5V45ZM23 30C22.2917 30 21.6975 29.76 21.2175 29.28C20.7375 28.8 20.4983 28.2067 20.5 27.5C20.5 26.7917 20.74 26.1975 21.22 25.7175C21.7 25.2375 22.2933 24.9983 23 25C23.7083 25 24.3025 25.24 24.7825 25.72C25.2625 26.2 25.5017 26.7933 25.5 27.5C25.5 28.2083 25.26 28.8025 24.78 29.2825C24.3 29.7625 23.7067 30.0017 23 30ZM13 30C12.2917 30 11.6975 29.76 11.2175 29.28C10.7375 28.8 10.4983 28.2067 10.5 27.5C10.5 26.7917 10.74 26.1975 11.22 25.7175C11.7 25.2375 12.2933 24.9983 13 25C13.7083 25 14.3025 25.24 14.7825 25.72C15.2625 26.2 15.5017 26.7933 15.5 27.5C15.5 28.2083 15.26 28.8025 14.78 29.2825C14.3 29.7625 13.7067 30.0017 13 30ZM33 30C32.2917 30 31.6975 29.76 31.2175 29.28C30.7375 28.8 30.4983 28.2067 30.5 27.5C30.5 26.7917 30.74 26.1975 31.22 25.7175C31.7 25.2375 32.2933 24.9983 33 25C33.7083 25 34.3025 25.24 34.7825 25.72C35.2625 26.2 35.5017 26.7933 35.5 27.5C35.5 28.2083 35.26 28.8025 34.78 29.2825C34.3 29.7625 33.7067 30.0017 33 30ZM23 40C22.2917 40 21.6975 39.76 21.2175 39.28C20.7375 38.8 20.4983 38.2067 20.5 37.5C20.5 36.7917 20.74 36.1975 21.22 35.7175C21.7 35.2375 22.2933 34.9983 23 35C23.7083 35 24.3025 35.24 24.7825 35.72C25.2625 36.2 25.5017 36.7933 25.5 37.5C25.5 38.2083 25.26 38.8025 24.78 39.2825C24.3 39.7625 23.7067 40.0017 23 40ZM13 40C12.2917 40 11.6975 39.76 11.2175 39.28C10.7375 38.8 10.4983 38.2067 10.5 37.5C10.5 36.7917 10.74 36.1975 11.22 35.7175C11.7 35.2375 12.2933 34.9983 13 35C13.7083 35 14.3025 35.24 14.7825 35.72C15.2625 36.2 15.5017 36.7933 15.5 37.5C15.5 38.2083 15.26 38.8025 14.78 39.2825C14.3 39.7625 13.7067 40.0017 13 40ZM33 40C32.2917 40 31.6975 39.76 31.2175 39.28C30.7375 38.8 30.4983 38.2067 30.5 37.5C30.5 36.7917 30.74 36.1975 31.22 35.7175C31.7 35.2375 32.2933 34.9983 33 35C33.7083 35 34.3025 35.24 34.7825 35.72C35.2625 36.2 35.5017 36.7933 35.5 37.5C35.5 38.2083 35.26 38.8025 34.78 39.2825C34.3 39.7625 33.7067 40.0017 33 40Z" fill="white"></path>
  </symbol>
</svg>