<svg width="0" height="0" class="hidden">
  <symbol fill="none" xmlns="http://www.w3.org/2000/svg" viewBox="0 0 38 39" id="phone">
    <path d="M33.29 21.4605C32.8705 21.4605 32.432 21.3266 32.0124 21.231C31.1629 21.0433 30.3281 20.794 29.5145 20.4852C28.6299 20.1624 27.6575 20.1792 26.7845 20.5322C25.9114 20.8853 25.1994 21.5497 24.7855 22.3976L24.366 23.2582C22.5087 22.222 20.8021 20.935 19.2938 19.4334C17.7965 17.9207 16.5133 16.2091 15.4801 14.3464L16.281 13.8109C17.1264 13.3958 17.7889 12.6817 18.1409 11.8061C18.4929 10.9306 18.5096 9.95534 18.1878 9.06816C17.885 8.25046 17.6366 7.41355 17.4441 6.56291C17.3488 6.14219 17.2725 5.70234 17.2153 5.26248C16.9838 3.91543 16.2803 2.69555 15.2315 1.82253C14.1827 0.949517 12.8576 0.480735 11.4948 0.500607H5.77425C4.95246 0.492868 4.13865 0.662804 3.38823 0.998845C2.63781 1.33489 1.96839 1.82914 1.42555 2.44797C0.882713 3.06679 0.479194 3.79566 0.242465 4.58495C0.0057371 5.37423 -0.0586421 6.20541 0.0537105 7.02189C1.06956 15.0337 4.71791 22.4777 10.4225 28.1781C16.127 33.8785 23.5627 37.5103 31.5548 38.5H32.2794C33.6855 38.5021 35.0432 37.9847 36.0931 37.0466C36.6964 36.5054 37.1783 35.8421 37.507 35.1004C37.8357 34.3586 38.0037 33.5554 37.9999 32.7437V27.0065C37.9766 25.6781 37.4943 24.399 36.6353 23.3876C35.7763 22.3761 34.594 21.695 33.29 21.4605ZM34.2435 32.9349C34.2431 33.2064 34.1851 33.4748 34.0733 33.7221C33.9615 33.9694 33.7985 34.19 33.5951 34.3692C33.3861 34.5602 33.1374 34.7021 32.867 34.7848C32.5966 34.8675 32.3112 34.8889 32.0315 34.8473C24.8902 33.929 18.2569 30.6524 13.178 25.5345C8.09907 20.4165 4.86356 13.7484 3.98181 6.58204C3.95146 6.30191 3.97806 6.01851 4.06 5.74898C4.14193 5.47945 4.27751 5.22937 4.45852 5.01387C4.63721 4.80988 4.85717 4.64639 5.10376 4.53427C5.35035 4.42216 5.61792 4.364 5.88866 4.36365H11.6092C12.0526 4.35376 12.4856 4.4992 12.8337 4.77496C13.1817 5.05071 13.423 5.43951 13.516 5.87445C13.5923 6.39717 13.6877 6.91352 13.8021 7.42349C14.0223 8.4316 14.3155 9.4223 14.6792 10.3877L12.0096 11.6308C11.7814 11.7358 11.5761 11.885 11.4055 12.0699C11.2349 12.2547 11.1024 12.4715 11.0155 12.7078C10.9287 12.9442 10.8893 13.1954 10.8996 13.447C10.9098 13.6987 10.9695 13.9458 11.0753 14.1743C13.8196 20.0697 18.5449 24.8087 24.4232 27.5611C24.8874 27.7523 25.4082 27.7523 25.8724 27.5611C26.1102 27.4758 26.3287 27.3439 26.5153 27.1732C26.7019 27.0025 26.8528 26.7963 26.9593 26.5666L28.1415 23.8893C29.1273 24.2428 30.1334 24.5366 31.1544 24.769C31.6629 24.8837 32.1777 24.9793 32.6989 25.0558C33.1326 25.1491 33.5203 25.3911 33.7952 25.7402C34.0702 26.0892 34.2152 26.5235 34.2053 26.9682L34.2435 32.9349ZM32.451 15.7233C32.9567 15.7233 33.4418 15.5218 33.7994 15.1632C34.157 14.8045 34.3579 14.3181 34.3579 13.8109V6.16131C34.3579 5.65411 34.157 5.16768 33.7994 4.80904C33.4418 4.4504 32.9567 4.24891 32.451 4.24891C31.9453 4.24891 31.4603 4.4504 31.1027 4.80904C30.7451 5.16768 30.5442 5.65411 30.5442 6.16131V13.8109C30.5442 14.3181 30.7451 14.8045 31.1027 15.1632C31.4603 15.5218 31.9453 15.7233 32.451 15.7233ZM24.8236 15.7233C25.3294 15.7233 25.8144 15.5218 26.172 15.1632C26.5296 14.8045 26.7305 14.3181 26.7305 13.8109V6.16131C26.7305 5.65411 26.5296 5.16768 26.172 4.80904C25.8144 4.4504 25.3294 4.24891 24.8236 4.24891C24.3179 4.24891 23.8329 4.4504 23.4753 4.80904C23.1177 5.16768 22.9168 5.65411 22.9168 6.16131V13.8109C22.9168 14.3181 23.1177 14.8045 23.4753 15.1632C23.8329 15.5218 24.3179 15.7233 24.8236 15.7233Z" fill="#CCCCCC"></path>
  </symbol>
</svg>