<svg width="391" height="131" viewBox="0 0 391 131" fill="none" xmlns="http://www.w3.org/2000/svg">
<g clip-path="url(#clip0_2382_5238)">
<g clip-path="url(#clip1_2382_5238)">
<g clip-path="url(#clip2_2382_5238)">
<g clip-path="url(#clip3_2382_5238)">
<path d="M154.664 3.64881C154.664 1.63363 153.682 0 152.469 0C151.257 0 150.274 1.63363 150.274 3.64881V127.541C150.274 129.556 151.257 131.19 152.469 131.19C153.682 131.19 154.664 129.556 154.664 127.541V3.64881Z" fill="#FEF9CC"/>
<g clip-path="url(#clip4_2382_5238)">
<g clip-path="url(#clip5_2382_5238)">
<g clip-path="url(#clip6_2382_5238)">
<g clip-path="url(#clip7_2382_5238)">
<path d="M166.156 47.4826L173.797 3.57693H183.783L191.423 47.4826H184.051L182.71 38.7642V38.8896H174.333L172.992 47.4826H166.156ZM175.204 32.931H181.839L178.555 11.2291H178.421L175.204 32.931ZM205.23 48.1098C201.7 48.1098 199.01 47.169 197.16 45.2873C195.301 43.4057 194.372 40.75 194.372 37.3216V13.738C194.372 10.3096 195.301 7.65389 197.16 5.77222C199.01 3.89054 201.7 2.94971 205.23 2.94971C208.759 2.94971 211.449 3.89054 213.299 5.77222C215.158 7.65389 216.087 10.3096 216.087 13.738V18.3794H209.117V13.2989C209.117 10.5805 207.888 9.22195 205.431 9.22195C202.974 9.22195 201.744 10.5805 201.744 13.2989V37.8234C201.744 40.4991 202.974 41.8376 205.431 41.8376C207.888 41.8376 209.117 40.4991 209.117 37.8234V31.1121H216.087V37.3216C216.087 40.75 215.158 43.4057 213.299 45.2873C211.449 47.169 208.759 48.1098 205.23 48.1098ZM231.234 48.1098C227.659 48.1098 224.934 47.1565 223.057 45.2497C221.181 43.3517 220.242 40.6246 220.242 37.0707V3.57693H227.615V37.5725C227.615 39.0778 227.94 40.1654 228.593 40.834C229.236 41.5027 230.161 41.8376 231.368 41.8376C232.574 41.8376 233.503 41.5027 234.156 40.834C234.799 40.1654 235.121 39.0778 235.121 37.5725V3.57693H242.225V37.0707C242.225 40.6246 241.287 43.3517 239.41 45.2497C237.534 47.1565 234.809 48.1098 231.234 48.1098ZM247.453 47.4826V3.57693H257.975L262.667 35.0009H262.801L267.492 3.57693H278.014V47.4826H271.044V14.2397H270.91L265.548 47.4826H259.383L254.021 14.2397H253.887V47.4826H247.453ZM283.51 47.4826V3.57693H303.616V9.84917H290.882V21.4528H301.003V27.7251H290.882V41.2104H303.616V47.4826H283.51ZM307.839 47.4826V3.57693H317.088L324.259 29.8576H324.393V3.57693H330.961V47.4826H323.388L314.541 15.4315H314.407V47.4826H307.839Z" fill="#FEF9CC"/>
<path d="M168.1 96.4062V52.5005H175.472V70.3764H183.381V52.5005H190.753V96.4062H183.381V76.6486H175.472V96.4062H168.1ZM194.305 96.4062L201.946 52.5005H211.932L219.572 96.4062H212.2L210.86 87.6878V87.8132H202.482L201.141 96.4062H194.305ZM203.353 81.8546H209.988L206.704 60.1526H206.57L203.353 81.8546ZM223.124 96.4062V52.5005H232.373L239.545 78.7812H239.679V52.5005H246.247V96.4062H238.673L229.826 64.355H229.692V96.4062H223.124ZM251.742 96.4062V52.5005H263.002C266.665 52.5005 269.413 53.42 271.245 55.2603C273.078 57.1006 273.993 59.7976 273.993 63.3515V85.5552C273.993 89.109 273.078 91.8061 271.245 93.6464C269.413 95.4867 266.665 96.4062 263.002 96.4062H251.742ZM259.115 90.1339H262.868C264.074 90.1339 265.003 89.799 265.656 89.1304C266.299 88.4618 266.621 87.3741 266.621 85.8688V63.0379C266.621 61.5325 266.299 60.4449 265.656 59.7763C265.003 59.1077 264.074 58.7727 262.868 58.7727H259.115V90.1339ZM284.516 96.4062V77.7149L275.602 52.5005H283.443L288.47 68.6201H288.604L293.631 52.5005H300.802L291.888 77.7149V96.4062H284.516ZM304.153 96.4062V52.5005H314.675L319.367 83.9244H319.501L324.192 52.5005H334.714V96.4062H327.744V63.1633H327.61L322.249 96.4062H316.083L310.721 63.1633H310.587V96.4062H304.153ZM338.267 96.4062L345.907 52.5005H355.893L363.533 96.4062H356.161L354.821 87.6878V87.8132H346.443L345.103 96.4062H338.267ZM347.314 81.8546H353.949L350.665 60.1526H350.531L347.314 81.8546ZM367.086 96.4062V52.5005H376.334L383.506 78.7812H383.64V52.5005H390.208V96.4062H382.634L373.788 64.355H373.654V96.4062H367.086Z" fill="#FEF9CC"/>
</g>
</g>
<g clip-path="url(#clip8_2382_5238)">
<g clip-path="url(#clip9_2382_5238)">
<path d="M175.567 117.328V119.004H168.361V124.518H176.731V126.194H166.173V110.637H176.614V112.326H168.361V117.328H175.567ZM179.766 114.632L182.903 123.511L185.966 114.632H188.122L183.693 126.194H182.085L177.61 114.632H179.766ZM195.131 126.408C193.457 126.408 192.095 125.893 191.044 124.863C189.993 123.834 189.468 122.457 189.468 120.732V120.369C189.468 119.223 189.702 118.2 190.17 117.302C190.637 116.4 191.292 115.694 192.134 115.184C192.975 114.676 193.887 114.422 194.869 114.422C196.474 114.422 197.723 114.917 198.614 115.906C199.503 116.895 199.947 118.313 199.947 120.159V120.982H191.582C191.61 122.12 191.965 123.04 192.648 123.743C193.327 124.443 194.192 124.793 195.243 124.793C195.991 124.793 196.624 124.652 197.141 124.369C197.659 124.083 198.111 123.705 198.497 123.236L199.788 124.176C198.753 125.664 197.201 126.408 195.131 126.408ZM194.869 116.046C194.015 116.046 193.299 116.336 192.723 116.917C192.143 117.497 191.784 118.31 191.647 119.354H197.838V119.205C197.776 118.202 197.486 117.424 196.968 116.873C196.451 116.321 195.751 116.046 194.869 116.046ZM208.359 114.571V116.409C208.041 116.359 207.695 116.335 207.321 116.335C205.937 116.335 204.997 116.886 204.501 117.989V126.194H202.388V114.632H204.445L204.478 115.971C205.17 114.939 206.152 114.422 207.424 114.422C207.835 114.422 208.147 114.472 208.359 114.571ZM211.464 114.632L214.545 123.297L217.426 114.632H219.684L214.718 127.979C213.948 129.902 212.726 130.863 211.052 130.863L210.655 130.832L209.865 130.692V129.091L210.435 129.13C211.152 129.13 211.71 128.996 212.109 128.727C212.508 128.456 212.837 127.96 213.096 127.24L213.563 126.067L209.159 114.632H211.464ZM222.321 111.836H224.43V114.632H226.735V116.164H224.43V123.332C224.43 123.793 224.533 124.14 224.739 124.373C224.944 124.604 225.295 124.719 225.791 124.719C226.034 124.719 226.369 124.677 226.796 124.592V126.194C226.238 126.337 225.697 126.408 225.173 126.408C224.229 126.408 223.517 126.141 223.037 125.607C222.56 125.073 222.321 124.315 222.321 123.332V116.164H220.072V114.632H222.321V111.836ZM231.313 109.784V116.033C232.248 114.959 233.465 114.422 234.965 114.422C237.577 114.422 238.894 115.799 238.916 118.553V126.194H236.807V118.544C236.798 117.71 236.594 117.095 236.195 116.698C235.796 116.298 235.174 116.098 234.329 116.098C233.643 116.098 233.041 116.269 232.524 116.61C232.007 116.952 231.603 117.401 231.313 117.958V126.194H229.204V109.784H231.313ZM244.373 114.632V126.194H242.259V114.632H244.373ZM242.091 111.569C242.091 111.248 242.195 110.977 242.404 110.755C242.613 110.533 242.923 110.423 243.335 110.423C243.746 110.423 244.058 110.533 244.27 110.755C244.482 110.977 244.588 111.248 244.588 111.569C244.588 111.89 244.482 112.157 244.27 112.37C244.058 112.583 243.746 112.689 243.335 112.689C242.923 112.689 242.613 112.583 242.404 112.37C242.195 112.157 242.091 111.89 242.091 111.569ZM247.749 114.632H249.75L249.816 116.085C250.76 114.977 251.993 114.422 253.514 114.422C256.126 114.422 257.444 115.799 257.465 118.553V126.194H255.352V118.544C255.346 117.71 255.143 117.095 254.744 116.698C254.345 116.298 253.723 116.098 252.878 116.098C252.192 116.098 251.591 116.269 251.073 116.61C250.556 116.952 250.152 117.401 249.862 117.958V126.194H247.749V114.632ZM260.145 120.317C260.145 118.517 260.59 117.084 261.482 116.019C262.373 114.955 263.553 114.422 265.022 114.422C266.527 114.422 267.702 114.92 268.547 115.914L268.65 114.632H270.581V125.918C270.581 127.412 270.107 128.59 269.16 129.454C268.212 130.314 266.939 130.745 265.34 130.745C264.451 130.745 263.58 130.567 262.726 130.211C261.875 129.855 261.225 129.366 260.776 128.745L261.87 127.563C262.777 128.608 263.885 129.13 265.195 129.13C266.22 129.13 267.02 128.86 267.593 128.32C268.17 127.778 268.458 127.015 268.458 126.032V125.038C267.614 125.952 266.46 126.408 264.998 126.408C263.552 126.408 262.381 125.863 261.487 124.772C260.592 123.683 260.145 122.198 260.145 120.317ZM262.272 120.54C262.272 121.844 262.557 122.868 263.128 123.612C263.698 124.359 264.496 124.732 265.522 124.732C266.856 124.732 267.835 124.165 268.458 123.03V117.752C267.81 116.65 266.839 116.098 265.545 116.098C264.52 116.098 263.717 116.472 263.137 117.219C262.561 117.968 262.272 119.075 262.272 120.54ZM282.234 110.637V126.194H280.041V110.637H282.234ZM293.1 123.126C293.1 122.592 292.885 122.178 292.455 121.883C292.025 121.589 291.275 121.333 290.206 121.118C289.137 120.905 288.289 120.649 287.662 120.352C287.033 120.051 286.568 119.694 286.269 119.28C285.967 118.868 285.815 118.377 285.815 117.805C285.815 116.86 286.244 116.059 287.101 115.402C287.959 114.749 289.053 114.422 290.384 114.422C291.783 114.422 292.92 114.761 293.792 115.437C294.662 116.111 295.097 116.976 295.097 118.032H292.974C292.974 117.49 292.729 117.023 292.24 116.632C291.748 116.241 291.129 116.046 290.384 116.046C289.614 116.046 289.012 116.202 288.579 116.514C288.146 116.829 287.929 117.239 287.929 117.744C287.929 118.219 288.13 118.578 288.532 118.82C288.937 119.062 289.667 119.294 290.72 119.516C291.774 119.738 292.628 120.002 293.283 120.308C293.937 120.614 294.422 120.982 294.737 121.411C295.055 121.842 295.214 122.369 295.214 122.99C295.214 124.023 294.771 124.85 293.886 125.472C293.004 126.096 291.86 126.408 290.454 126.408C289.463 126.408 288.587 126.245 287.826 125.918C287.065 125.588 286.47 125.13 286.04 124.544C285.61 123.955 285.395 123.319 285.395 122.636H287.508C287.545 123.298 287.829 123.823 288.359 124.211C288.886 124.599 289.584 124.793 290.454 124.793C291.252 124.793 291.893 124.642 292.376 124.338C292.859 124.038 293.1 123.634 293.1 123.126ZM310.186 120.102H306.272V126.194H304.079V110.637H310.21C312.03 110.637 313.456 111.072 314.488 111.941C315.517 112.81 316.031 113.961 316.031 115.394C316.031 116.902 315.528 118.065 314.521 118.881C313.511 119.695 312.066 120.102 310.186 120.102ZM306.272 112.326V118.426H310.21C311.382 118.426 312.279 118.168 312.903 117.652C313.529 117.135 313.843 116.39 313.843 115.416C313.843 114.488 313.529 113.747 312.903 113.193C312.279 112.635 311.424 112.347 310.336 112.326H306.272ZM317.789 120.448V120.308C317.789 119.176 318.028 118.158 318.505 117.254C318.979 116.346 319.639 115.648 320.487 115.157C321.338 114.667 322.308 114.422 323.396 114.422C325.076 114.422 326.437 114.966 327.478 116.055C328.516 117.146 329.035 118.596 329.035 120.404V120.54C329.035 121.666 328.804 122.677 328.343 123.572C327.881 124.465 327.224 125.161 326.37 125.66C325.512 126.159 324.529 126.408 323.419 126.408C321.745 126.408 320.387 125.863 319.346 124.772C318.308 123.683 317.789 122.242 317.789 120.448ZM319.912 120.54C319.912 121.824 320.23 122.853 320.866 123.629C321.502 124.405 322.353 124.793 323.419 124.793C324.491 124.793 325.344 124.4 325.977 123.612C326.606 122.827 326.921 121.726 326.921 120.308C326.921 119.039 326.6 118.011 325.958 117.223C325.316 116.438 324.462 116.046 323.396 116.046C322.351 116.046 321.51 116.434 320.871 117.21C320.232 117.986 319.912 119.096 319.912 120.54ZM338.873 123.126C338.873 122.592 338.658 122.178 338.228 121.883C337.797 121.589 337.048 121.333 335.979 121.118C334.909 120.905 334.061 120.649 333.435 120.352C332.805 120.051 332.341 119.694 332.041 119.28C331.739 118.868 331.588 118.377 331.588 117.805C331.588 116.86 332.016 116.059 332.874 115.402C333.731 114.749 334.825 114.422 336.156 114.422C337.556 114.422 338.692 114.761 339.565 115.437C340.435 116.111 340.87 116.976 340.87 118.032H338.747C338.747 117.49 338.502 117.023 338.013 116.632C337.52 116.241 336.901 116.046 336.156 116.046C335.386 116.046 334.785 116.202 334.351 116.514C333.918 116.829 333.701 117.239 333.701 117.744C333.701 118.219 333.904 118.578 334.309 118.82C334.711 119.062 335.439 119.294 336.493 119.516C337.547 119.738 338.401 120.002 339.055 120.308C339.71 120.614 340.195 120.982 340.51 121.411C340.827 121.842 340.986 122.369 340.986 122.99C340.986 124.023 340.545 124.85 339.663 125.472C338.778 126.096 337.632 126.408 336.226 126.408C335.235 126.408 334.359 126.245 333.599 125.918C332.838 125.588 332.242 125.13 331.812 124.544C331.382 123.955 331.167 123.319 331.167 122.636H333.281C333.318 123.298 333.602 123.823 334.132 124.211C334.658 124.599 335.357 124.793 336.226 124.793C337.024 124.793 337.665 124.642 338.148 124.338C338.631 124.038 338.873 123.634 338.873 123.126ZM350.927 123.126C350.927 122.592 350.712 122.178 350.282 121.883C349.852 121.589 349.102 121.333 348.033 121.118C346.964 120.905 346.116 120.649 345.489 120.352C344.86 120.051 344.395 119.694 344.096 119.28C343.794 118.868 343.642 118.377 343.642 117.805C343.642 116.86 344.071 116.059 344.928 115.402C345.785 114.749 346.88 114.422 348.211 114.422C349.61 114.422 350.747 114.761 351.619 115.437C352.489 116.111 352.924 116.976 352.924 118.032H350.801C350.801 117.49 350.556 117.023 350.067 116.632C349.575 116.241 348.956 116.046 348.211 116.046C347.441 116.046 346.839 116.202 346.406 116.514C345.973 116.829 345.756 117.239 345.756 117.744C345.756 118.219 345.957 118.578 346.359 118.82C346.764 119.062 347.494 119.294 348.547 119.516C349.601 119.738 350.455 120.002 351.11 120.308C351.764 120.614 352.249 120.982 352.564 121.411C352.882 121.842 353.041 122.369 353.041 122.99C353.041 124.023 352.598 124.85 351.713 125.472C350.831 126.096 349.687 126.408 348.281 126.408C347.29 126.408 346.414 126.245 345.653 125.918C344.892 125.588 344.297 125.13 343.867 124.544C343.437 123.955 343.222 123.319 343.222 122.636H345.335C345.372 123.298 345.656 123.823 346.186 124.211C346.713 124.599 347.411 124.793 348.281 124.793C349.079 124.793 349.719 124.642 350.203 124.338C350.686 124.038 350.927 123.634 350.927 123.126ZM358.082 114.632V126.194H355.973V114.632H358.082ZM355.8 111.569C355.8 111.248 355.904 110.977 356.113 110.755C356.322 110.533 356.632 110.423 357.044 110.423C357.455 110.423 357.767 110.533 357.979 110.755C358.194 110.977 358.301 111.248 358.301 111.569C358.301 111.89 358.194 112.157 357.979 112.37C357.767 112.583 357.455 112.689 357.044 112.689C356.632 112.689 356.322 112.583 356.113 112.37C355.904 112.157 355.8 111.89 355.8 111.569ZM371.918 120.369V120.54C371.918 122.308 371.484 123.727 370.618 124.798C369.751 125.871 368.587 126.408 367.125 126.408C365.563 126.408 364.357 125.892 363.506 124.859L363.403 126.194H361.462V109.784H363.576V115.906C364.427 114.917 365.602 114.422 367.101 114.422C368.601 114.422 369.779 114.952 370.636 116.011C371.491 117.073 371.918 118.525 371.918 120.369ZM369.809 120.317C369.809 118.972 369.53 117.932 368.972 117.197C368.417 116.464 367.619 116.098 366.578 116.098C365.184 116.098 364.184 116.704 363.576 117.914V122.912C364.221 124.125 365.229 124.732 366.601 124.732C367.611 124.732 368.398 124.365 368.962 123.629C369.527 122.897 369.809 121.793 369.809 120.317ZM376.874 109.784V126.194H374.761V109.784H376.874ZM385.375 126.408C383.701 126.408 382.339 125.893 381.288 124.863C380.238 123.834 379.712 122.457 379.712 120.732V120.369C379.712 119.223 379.946 118.2 380.414 117.302C380.881 116.4 381.536 115.694 382.378 115.184C383.219 114.676 384.131 114.422 385.113 114.422C386.718 114.422 387.967 114.917 388.858 115.906C389.747 116.895 390.191 118.313 390.191 120.159V120.982H381.826C381.857 122.12 382.212 123.04 382.892 123.743C383.575 124.443 384.441 124.793 385.492 124.793C386.237 124.793 386.868 124.652 387.386 124.369C387.903 124.083 388.355 123.705 388.742 123.236L390.032 124.176C388.997 125.664 387.445 126.408 385.375 126.408ZM385.113 116.046C384.262 116.046 383.547 116.336 382.967 116.917C382.387 117.497 382.028 118.31 381.891 119.354H388.082V119.205C388.02 118.202 387.73 117.424 387.213 116.873C386.695 116.321 385.995 116.046 385.113 116.046Z" fill="#FEF9CC"/>
</g>
</g>
</g>
</g>
<g clip-path="url(#clip10_2382_5238)">
<g clip-path="url(#clip11_2382_5238)">
<path d="M73.8452 87.5892L118.074 128.971C118.074 128.971 123.466 134.022 133.067 125.037C142.668 116.051 137.271 111.005 137.271 111.005L97.0621 73.375C90.0975 75.1403 84.6235 77.0933 82.6601 78.9356L73.8452 87.5892Z" fill="#FEF9CC"/>
<path d="M63.7249 51.2576L35.6971 25.0323L30.3619 13.3867L9.8127 0.803223L0.319336 9.68769L13.7601 28.9189L26.2038 33.9168L54.0311 59.9545L60.1784 55.327C61.4531 54.11 62.6198 52.7247 63.7249 51.2576Z" fill="#FEF9CC"/>
<path d="M138.402 23.3488L111.798 34.1381L106.633 22.4445L107.198 16.5809L129.423 7.5136C129.423 7.5136 116.887 0.0481472 103.78 2.71301C90.6735 5.38268 87.826 5.90699 84.9785 13.916C82.131 21.9106 78.1424 46.9766 64.4652 59.7766L5.25892 104.334C5.25892 104.334 -5.01056 115.157 5.2692 124.777C15.549 134.397 27.1086 124.782 27.1086 124.782L78.1476 74.7027C86.6952 66.7033 124.299 62.4366 124.299 62.4366L118.033 48.2465C132.599 41.5651 138.402 23.3488 138.402 23.3488ZM22.5443 119.976C19.1931 123.118 13.7449 123.118 10.3885 119.976C7.03732 116.835 7.03732 111.746 10.3937 108.605C13.75 105.459 19.1931 105.459 22.5443 108.605C25.9007 111.741 25.9007 116.831 22.5443 119.976Z" fill="#FEF9CC"/>
</g>
</g>
</g>
</g>
</g>
</g>
<defs>
<clipPath id="clip0_2382_5238">
<rect width="391" height="131" fill="white"/>
</clipPath>
<clipPath id="clip1_2382_5238">
<rect width="391" height="131" fill="white" transform="translate(-0.236816 0.0947266)"/>
</clipPath>
<clipPath id="clip2_2382_5238">
<rect width="389.888" height="131.19" fill="white" transform="translate(0.319336)"/>
</clipPath>
<clipPath id="clip3_2382_5238">
<rect width="389.888" height="131.19" fill="white" transform="translate(0.319336)"/>
</clipPath>
<clipPath id="clip4_2382_5238">
<rect width="224.051" height="130.537" fill="white" transform="translate(166.156 0.326172)"/>
</clipPath>
<clipPath id="clip5_2382_5238">
<rect width="224.051" height="130.537" fill="white" transform="translate(166.156 0.326172)"/>
</clipPath>
<clipPath id="clip6_2382_5238">
<rect width="224.051" height="98.7032" fill="white" transform="translate(166.156 0.326172)"/>
</clipPath>
<clipPath id="clip7_2382_5238">
<rect width="224.051" height="98.7032" fill="white" transform="translate(166.156 0.326172)"/>
</clipPath>
<clipPath id="clip8_2382_5238">
<rect width="224.051" height="21.0792" fill="white" transform="translate(166.156 109.784)"/>
</clipPath>
<clipPath id="clip9_2382_5238">
<rect width="224.051" height="21.0792" fill="white" transform="translate(166.156 109.784)"/>
</clipPath>
<clipPath id="clip10_2382_5238">
<rect width="138.464" height="129.583" fill="white" transform="translate(0.319336 0.803223)"/>
</clipPath>
<clipPath id="clip11_2382_5238">
<rect width="138.464" height="129.583" fill="white" transform="translate(0.319336 0.803223)"/>
</clipPath>
</defs>
</svg>
