<svg width="246" height="462" viewBox="0 0 246 462" fill="none" xmlns="http://www.w3.org/2000/svg">
<path fill-rule="evenodd" clip-rule="evenodd" d="M197.499 372.633C227.898 333.52 246 284.374 246 231C246 103.422 142.578 0 15 0C-112.578 0 -216 103.422 -216 231C-216 358.578 -112.578 462 15 462C86.1026 462 149.702 429.876 192.076 379.349C195.15 378.642 197.451 375.91 197.499 372.633ZM197.5 352.388C220.661 317.637 234.16 275.895 234.16 231C234.16 154.689 195.158 87.4878 136 48.2421V298.345C136 302.211 132.866 305.345 129 305.345C125.134 305.345 122 302.211 122 298.345V43C122 41.9481 122.232 40.9504 122.648 40.0553C107.15 31.2995 90.4804 24.3759 72.9325 19.5786V273.682C72.9325 277.548 69.7985 280.682 65.9325 280.682C62.0665 280.682 58.9325 277.548 58.9325 273.682V18.3374C58.9325 17.6309 59.0372 16.9488 59.2319 16.3058C44.9454 13.3779 30.1523 11.8402 15 11.8402C-106.039 11.8402 -204.16 109.961 -204.16 231C-204.16 352.039 -106.039 450.16 15 450.16C82.7383 450.16 143.299 419.428 183.5 371.147V243C183.5 239.134 186.634 236 190.5 236C194.366 236 197.5 239.134 197.5 243V352.388ZM201 153C201 157.941 196.941 162 192 162C187.059 162 183 158.029 183 153C183 148.059 187.059 144 192 144C196.941 144 201 148.059 201 153ZM192 214C196.941 214 201 209.941 201 205C201 200.059 196.941 196 192 196C187.059 196 183 200.059 183 205C183 210.029 187.059 214 192 214ZM68 324C72.9412 324 77 319.941 77 315C77 310.059 72.9412 306 68 306C63.0588 306 59 310.059 59 315C59 320.029 63.0588 324 68 324ZM68 370C72.9412 370 77 365.941 77 361C77 356.059 72.9412 352 68 352C63.0588 352 59 356.059 59 361C59 366.029 63.0588 370 68 370ZM137 379C137 383.941 132.941 388 128 388C123.059 388 119 384.029 119 379C119 374.059 123.059 370 128 370C132.941 370 137 374.059 137 379ZM137 335C137 339.941 132.941 344 128 344C123.059 344 119 340.029 119 335C119 330.059 123.059 326 128 326C132.941 326 137 330.059 137 335Z" fill="#C4C4C4" fill-opacity="0.05"/>
</svg>
