<svg width="27" height="27" viewBox="0 0 27 27" fill="none" xmlns="http://www.w3.org/2000/svg">
<path d="M7.875 23.625C7.25625 23.625 6.72638 23.4045 6.28538 22.9635C5.84438 22.5225 5.62425 21.993 5.625 21.375V6.75C5.30625 6.75 5.03888 6.642 4.82288 6.426C4.60688 6.21 4.49925 5.943 4.5 5.625C4.5 5.30625 4.608 5.03888 4.824 4.82288C5.04 4.60688 5.307 4.49925 5.625 4.5H10.125C10.125 4.18125 10.233 3.91388 10.449 3.69788C10.665 3.48188 10.932 3.37425 11.25 3.375H15.75C16.0688 3.375 16.3361 3.483 16.5521 3.699C16.7681 3.915 16.8758 4.182 16.875 4.5H21.375C21.6938 4.5 21.9611 4.608 22.1771 4.824C22.3931 5.04 22.5008 5.307 22.5 5.625C22.5 5.94375 22.392 6.21113 22.176 6.42713C21.96 6.64313 21.693 6.75075 21.375 6.75V21.375C21.375 21.9938 21.1545 22.5236 20.7135 22.9646C20.2725 23.4056 19.743 23.6258 19.125 23.625H7.875ZM7.875 6.75V21.375H19.125V6.75H7.875ZM10.125 18C10.125 18.3188 10.233 18.5861 10.449 18.8021C10.665 19.0181 10.932 19.1258 11.25 19.125C11.5688 19.125 11.8361 19.017 12.0521 18.801C12.2681 18.585 12.3758 18.318 12.375 18V10.125C12.375 9.80625 12.267 9.53888 12.051 9.32288C11.835 9.10688 11.568 8.99925 11.25 9C10.9313 9 10.6639 9.108 10.4479 9.324C10.2319 9.54 10.1243 9.807 10.125 10.125V18ZM14.625 18C14.625 18.3188 14.733 18.5861 14.949 18.8021C15.165 19.0181 15.432 19.1258 15.75 19.125C16.0688 19.125 16.3361 19.017 16.5521 18.801C16.7681 18.585 16.8758 18.318 16.875 18V10.125C16.875 9.80625 16.767 9.53888 16.551 9.32288C16.335 9.10688 16.068 8.99925 15.75 9C15.4313 9 15.1639 9.108 14.9479 9.324C14.7319 9.54 14.6243 9.807 14.625 10.125V18Z" fill="white"/>
</svg>
