<svg width="43" height="36" viewBox="0 0 43 36" fill="none" xmlns="http://www.w3.org/2000/svg">
<path d="M23.4353 28.5C23.4353 29.55 23.6647 30.555 24.0529 31.5H9.31988C8.38396 31.5 7.48638 31.1839 6.82459 30.6213C6.16281 30.0587 5.79102 29.2956 5.79102 28.5V7.5C5.79102 5.85 7.379 4.5 9.31988 4.5H34.0219C34.9578 4.5 35.8554 4.81607 36.5172 5.37868C37.179 5.94129 37.5508 6.70435 37.5508 7.5V20.025C36.4392 19.695 35.257 19.5 34.0219 19.5V7.5H9.31988V28.5H23.4353ZM25.1292 18.435L20.277 23.745L16.8187 20.205L11.9665 25.5H24.0529C24.7586 23.82 26.029 22.365 27.67 21.315L25.1292 18.435ZM35.7863 27V22.5H32.2575V27H26.9642V30H32.2575V34.5H35.7863V30H41.0796V27H35.7863Z" fill="white"/>
</svg>
