<svg width="172" height="181" viewBox="0 0 172 181" fill="none" xmlns="http://www.w3.org/2000/svg">
<path d="M162.947 85.975H81.4737V67.875C81.4737 66.6749 81.9506 65.5239 82.7994 64.6753C83.6483 63.8267 84.7995 63.35 86 63.35C87.2005 63.35 88.3517 63.8267 89.2006 64.6753C90.0494 65.5239 90.5263 66.6749 90.5263 67.875V72.4C90.5263 73.6001 91.0032 74.751 91.852 75.5996C92.7009 76.4483 93.8522 76.925 95.0526 76.925C96.2531 76.925 97.4044 76.4483 98.2532 75.5996C99.1021 74.751 99.5789 73.6001 99.5789 72.4V67.875C99.5789 64.2747 98.1483 60.8218 95.6018 58.276C93.0552 55.7302 89.6014 54.3 86 54.3C82.3986 54.3 78.9448 55.7302 76.3982 58.276C73.8517 60.8218 72.4211 64.2747 72.4211 67.875V85.975H9.05263C6.65172 85.975 4.34915 86.9285 2.65145 88.6257C0.953756 90.3229 0 92.6248 0 95.025V171.95C0 174.35 0.953756 176.652 2.65145 178.349C4.34915 180.047 6.65172 181 9.05263 181H162.947C165.348 181 167.651 180.047 169.349 178.349C171.046 176.652 172 174.35 172 171.95V95.025C172 92.6248 171.046 90.3229 169.349 88.6257C167.651 86.9285 165.348 85.975 162.947 85.975ZM162.947 95.025V108.6H117.684V95.025H162.947ZM108.632 95.025V108.6H63.3684V95.025H108.632ZM9.05263 95.025H54.3158V108.6H9.05263V95.025ZM9.05263 171.95V117.65H54.3158V171.95H9.05263ZM63.3684 171.95V117.65H108.632V171.95H63.3684ZM162.947 171.95H117.684V117.65H162.947V171.95Z" fill="#C4C4C4" fill-opacity="0.09"/>
<path d="M162.947 0H9.05263C6.65172 0 4.34915 0.953479 2.65145 2.65068C0.953756 4.34789 0 6.64979 0 9.05V36.2C0 38.6002 0.953756 40.9021 2.65145 42.5993C4.34915 44.2965 6.65172 45.25 9.05263 45.25H162.947C165.348 45.25 167.651 44.2965 169.349 42.5993C171.046 40.9021 172 38.6002 172 36.2V9.05C172 6.64979 171.046 4.34789 169.349 2.65068C167.651 0.953479 165.348 0 162.947 0ZM162.947 9.05V18.1H117.684V9.05H162.947ZM9.05263 36.2V9.05H54.3158V36.2H9.05263ZM63.3684 36.2V9.05H108.632V36.2H63.3684ZM117.684 36.2V27.15H162.947V36.2H117.684Z" fill="#C4C4C4" fill-opacity="0.09"/>
<path d="M45.2631 135.75C44.0627 135.75 42.9114 136.227 42.0625 137.075C41.2137 137.924 40.7368 139.075 40.7368 140.275V149.325C40.7368 150.525 41.2137 151.676 42.0625 152.525C42.9114 153.373 44.0627 153.85 45.2631 153.85C46.4636 153.85 47.6149 153.373 48.4637 152.525C49.3126 151.676 49.7894 150.525 49.7894 149.325V140.275C49.7894 139.075 49.3126 137.924 48.4637 137.075C47.6149 136.227 46.4636 135.75 45.2631 135.75Z" fill="#C4C4C4" fill-opacity="0.09"/>
<path d="M99.579 135.75C98.3786 135.75 97.2273 136.227 96.3785 137.075C95.5296 137.924 95.0527 139.075 95.0527 140.275V149.325C95.0527 150.525 95.5296 151.676 96.3785 152.525C97.2273 153.373 98.3786 153.85 99.579 153.85C100.78 153.85 101.931 153.373 102.78 152.525C103.628 151.676 104.105 150.525 104.105 149.325V140.275C104.105 139.075 103.628 137.924 102.78 137.075C101.931 136.227 100.78 135.75 99.579 135.75Z" fill="#C4C4C4" fill-opacity="0.09"/>
<path d="M153.895 153.85C155.095 153.85 156.247 153.373 157.096 152.525C157.944 151.676 158.421 150.525 158.421 149.325V140.275C158.421 139.075 157.944 137.924 157.096 137.075C156.247 136.227 155.095 135.75 153.895 135.75C152.695 135.75 151.543 136.227 150.694 137.075C149.846 137.924 149.369 139.075 149.369 140.275V149.325C149.369 150.525 149.846 151.676 150.694 152.525C151.543 153.373 152.695 153.85 153.895 153.85Z" fill="#C4C4C4" fill-opacity="0.09"/>
</svg>
