<svg width="108" height="543" viewBox="0 0 108 543" fill="none" xmlns="http://www.w3.org/2000/svg">
  <g id="light-on">
    <path d="M49.906 535.124C48.4647 535.124 47.2808 536.308 47.2808 537.75V540.375C47.2808 541.816 48.4647 543 49.906 543C51.3474 543 52.5313 541.816 52.5313 540.375V537.75C52.5313 536.308 51.3474 535.124 49.906 535.124Z" fill="#FBE64D"/>
    <path d="M29.47 528.201L27.6169 530.054C25.9697 531.701 27.1536 534.532 29.47 534.532C30.1392 534.532 30.8084 534.275 31.3232 533.76L33.1763 531.907C34.2058 530.878 34.2058 529.23 33.1763 528.201C32.1725 527.171 30.4996 527.171 29.47 528.201Z" fill="#FBE64D"/>
    <path d="M71 509C71 511.495 70.4568 513.966 69.4015 516.271C68.3461 518.576 66.7993 520.671 64.8492 522.435C62.8992 524.199 60.5842 525.599 58.0364 526.554C55.4885 527.509 52.7578 528 50 528C47.2422 528 44.5115 527.509 41.9636 526.554C39.4158 525.599 37.1008 524.199 35.1508 522.435C33.2007 520.671 31.6539 518.576 30.5985 516.271C29.5432 513.966 29 511.495 29 509L50 509H71Z" fill="#FBE64D"/>
    <path d="M70.3163 528.201C69.2868 527.171 67.6396 527.171 66.61 528.201C65.5805 529.23 65.5805 530.878 66.61 531.907L68.4632 533.76C69.4927 534.79 71.1399 534.79 72.1695 533.76C73.199 532.731 73.199 531.083 72.1695 530.054L70.3163 528.201Z" fill="#FBE64D"/>
  </g>
  <path d="M60.4072 457.653V453.921C60.4072 449.031 57.0613 444.912 52.5314 443.754V419.766C52.5314 418.325 54.2506 -146.309 49 -139C46.3747 -145.395 47.2808 418.325 47.2808 419.766V443.729C42.7509 444.887 39.405 449.005 39.405 453.895V457.627C16.9099 462.466 0 482.49 0 506.401C0 507.842 1.18395 509.026 2.62528 509.026H29.0583C30.3452 519.373 39.1991 527.403 49.9061 527.403C60.5874 527.403 69.4413 519.373 70.7539 509.026H97.1869C98.6282 509.026 99.8122 507.842 99.8122 506.401C99.7864 482.516 82.9023 462.492 60.4072 457.653ZM44.6555 453.895C44.6555 450.987 47.0234 448.645 49.9061 448.645C52.8145 448.645 55.1567 451.012 55.1567 453.895V456.803C51.7078 456.443 48.1816 456.443 44.6555 456.803V453.895ZM49.9061 522.178C42.1075 522.178 35.6215 516.49 34.3603 509.052H65.4261C64.1907 516.49 57.7047 522.178 49.9061 522.178ZM5.32778 503.801C5.43073 502.025 5.63664 500.275 5.94549 498.551H55.1567C56.598 498.551 57.7819 497.367 57.7819 495.925C57.7819 494.484 56.598 493.3 55.1567 493.3H7.23239C13.7184 472.246 34.7721 458.837 56.9326 462.337C77.3686 465.58 93.249 482.748 94.4844 503.801H5.32778Z" fill="#C4C4C4" fill-opacity="0.05"/>
  <path d="M105.063 446.019C103.621 446.019 102.438 447.203 102.438 448.644C102.438 450.086 103.621 451.27 105.063 451.27C106.504 451.27 107.688 450.086 107.688 448.644C107.688 447.203 106.504 446.019 105.063 446.019Z" fill="#C4C4C4" fill-opacity="0.05"/>
  <path d="M23.6534 451.27C25.0947 451.27 26.2786 450.086 26.2786 448.644C26.2786 447.203 25.0947 446.019 23.6534 446.019C22.212 446.019 21.0281 447.203 21.0281 448.644C21.0281 450.112 22.1863 451.27 23.6534 451.27Z" fill="#C4C4C4" fill-opacity="0.05"/>
  <path d="M2.62528 464.396C4.06661 464.396 5.25056 463.212 5.25056 461.771C5.25056 460.33 4.06661 459.146 2.62528 459.146C1.18395 459.146 0 460.33 0 461.771C0 463.238 1.18395 464.396 2.62528 464.396Z" fill="#C4C4C4" fill-opacity="0.05"/>
  <path d="M23.6534 432.893C25.0947 432.893 26.2786 431.709 26.2786 430.267C26.2786 428.826 25.0947 427.642 23.6534 427.642C22.212 427.642 21.0281 428.826 21.0281 430.267C21.0281 431.709 22.1863 432.893 23.6534 432.893Z" fill="#C4C4C4" fill-opacity="0.05"/>
  <path d="M63.0325 438.143C64.4738 438.143 65.6578 436.959 65.6578 435.518C65.6578 434.077 64.4738 432.893 63.0325 432.893C61.5912 432.893 60.4072 434.077 60.4072 435.518C60.4072 436.959 61.5912 438.143 63.0325 438.143Z" fill="#C4C4C4" fill-opacity="0.05"/>
  <path d="M81.4095 453.895C82.8508 453.895 84.0347 452.711 84.0347 451.27C84.0347 449.828 82.8508 448.644 81.4095 448.644C79.9681 448.644 78.7842 449.828 78.7842 451.27C78.7842 452.737 79.9681 453.895 81.4095 453.895Z" fill="#C4C4C4" fill-opacity="0.05"/>
  <path d="M63.0325 493.3C61.5912 493.3 60.4072 494.484 60.4072 495.925C60.4072 497.367 61.5912 498.551 63.0325 498.551C64.4738 498.551 65.6578 497.367 65.6578 495.925C65.6578 494.458 64.4996 493.3 63.0325 493.3Z" fill="#C4C4C4" fill-opacity="0.05"/>
  <path d="M70.9085 493.3C69.4671 493.3 68.2832 494.484 68.2832 495.925C68.2832 497.367 69.4671 498.551 70.9085 498.551C72.3498 498.551 73.5338 497.367 73.5338 495.925C73.5338 494.458 72.3755 493.3 70.9085 493.3Z" fill="#C4C4C4" fill-opacity="0.05"/>
</svg>