<svg width="125" height="314" viewBox="0 0 125 314" fill="none" xmlns="http://www.w3.org/2000/svg">
<path d="M57.9292 304.872C56.2561 304.872 54.8818 306.244 54.8818 307.914V310.957C54.8818 312.628 56.2561 314 57.9292 314C59.6022 314 60.9765 312.628 60.9765 310.957V307.914C60.9765 306.244 59.6022 304.872 57.9292 304.872Z" fill="#C4C4C4" fill-opacity="0.09"/>
<path d="M34.2077 296.847L32.0567 298.995C30.1446 300.904 31.5189 304.186 34.2077 304.186C34.9845 304.186 35.7613 303.887 36.3588 303.291L38.5098 301.143C39.7048 299.95 39.7048 298.04 38.5098 296.847C37.3447 295.654 35.4027 295.654 34.2077 296.847Z" fill="#C4C4C4" fill-opacity="0.09"/>
<path d="M81.6202 296.847C80.4252 295.654 78.5132 295.654 77.3181 296.847C76.1231 298.04 76.1231 299.95 77.3181 301.143L79.4692 303.291C80.6642 304.484 82.5763 304.484 83.7713 303.291C84.9663 302.097 84.9663 300.188 83.7713 298.995L81.6202 296.847Z" fill="#C4C4C4" fill-opacity="0.09"/>
<path d="M70.1183 215.081V210.756C70.1183 205.088 66.2345 200.315 60.9763 198.973V171.171C60.9763 169.5 64.0237 -22.1979 57.929 -13.7273C54.8817 -21.1392 54.8817 169.5 54.8817 171.171V198.943C49.6236 200.285 45.7397 205.058 45.7397 210.726V215.051C19.6283 220.66 0 243.868 0 271.581C0 273.251 1.37428 274.623 3.04732 274.623H33.7297C35.2235 286.615 45.5007 295.923 57.929 295.923C70.3274 295.923 80.6047 286.615 82.1284 274.623H112.811C114.484 274.623 115.858 273.251 115.858 271.581C115.828 243.898 96.2297 220.689 70.1183 215.081ZM51.8344 210.726C51.8344 207.355 54.5829 204.641 57.929 204.641C61.305 204.641 64.0237 207.385 64.0237 210.726V214.097C60.0203 213.679 55.9274 213.679 51.8344 214.097V210.726ZM57.929 289.867C48.8767 289.867 41.348 283.274 39.8841 274.653H75.9441C74.51 283.274 66.9814 289.867 57.929 289.867ZM6.18427 268.568C6.30378 266.509 6.54278 264.481 6.90129 262.482H64.0237C65.6967 262.482 67.071 261.11 67.071 259.44C67.071 257.769 65.6967 256.397 64.0237 256.397H8.39508C15.9238 231.995 40.3621 216.453 66.0851 220.51C89.8064 224.269 108.24 244.166 109.674 268.568H6.18427Z" fill="#C4C4C4" fill-opacity="0.09"/>
<path d="M121.953 201.598C120.28 201.598 118.905 202.97 118.905 204.64C118.905 206.311 120.28 207.683 121.953 207.683C123.626 207.683 125 206.311 125 204.64C125 202.97 123.626 201.598 121.953 201.598Z" fill="#C4C4C4" fill-opacity="0.09"/>
<path d="M27.456 207.683C29.1291 207.683 30.5033 206.311 30.5033 204.64C30.5033 202.97 29.1291 201.598 27.456 201.598C25.783 201.598 24.4087 202.97 24.4087 204.64C24.4087 206.341 25.7531 207.683 27.456 207.683Z" fill="#C4C4C4" fill-opacity="0.09"/>
<path d="M3.04732 222.897C4.72036 222.897 6.09465 221.525 6.09465 219.854C6.09465 218.184 4.72036 216.811 3.04732 216.811C1.37428 216.811 0 218.184 0 219.854C0 221.554 1.37428 222.897 3.04732 222.897Z" fill="#C4C4C4" fill-opacity="0.09"/>
<path d="M27.456 186.384C29.1291 186.384 30.5033 185.012 30.5033 183.341C30.5033 181.671 29.1291 180.299 27.456 180.299C25.783 180.299 24.4087 181.671 24.4087 183.341C24.4087 185.012 25.7531 186.384 27.456 186.384Z" fill="#C4C4C4" fill-opacity="0.09"/>
<path d="M73.1655 192.47C74.8385 192.47 76.2128 191.097 76.2128 189.427C76.2128 187.756 74.8385 186.384 73.1655 186.384C71.4925 186.384 70.1182 187.756 70.1182 189.427C70.1182 191.097 71.4925 192.47 73.1655 192.47Z" fill="#C4C4C4" fill-opacity="0.09"/>
<path d="M94.497 210.726C96.1701 210.726 97.5444 209.354 97.5444 207.683C97.5444 206.013 96.1701 204.641 94.497 204.641C92.824 204.641 91.4497 206.013 91.4497 207.683C91.4497 209.384 92.824 210.726 94.497 210.726Z" fill="#C4C4C4" fill-opacity="0.09"/>
<path d="M73.1655 256.397C71.4925 256.397 70.1182 257.769 70.1182 259.439C70.1182 261.11 71.4925 262.482 73.1655 262.482C74.8385 262.482 76.2128 261.11 76.2128 259.439C76.2128 257.739 74.8684 256.397 73.1655 256.397Z" fill="#C4C4C4" fill-opacity="0.09"/>
<path d="M82.3076 256.397C80.6345 256.397 79.2603 257.769 79.2603 259.439C79.2603 261.11 80.6345 262.482 82.3076 262.482C83.9806 262.482 85.3549 261.11 85.3549 259.439C85.3549 257.739 84.0105 256.397 82.3076 256.397Z" fill="#C4C4C4" fill-opacity="0.09"/>
</svg>
