<svg width="22" height="21" viewBox="0 0 22 21" fill="none" xmlns="http://www.w3.org/2000/svg">
<path d="M10.1964 19.7801C10.4927 20.7079 11.8055 20.7079 12.1017 19.7801L13.8791 14.2131C14.0114 13.7985 14.3966 13.5172 14.8317 13.5172H20.6202C21.5846 13.5172 21.9902 12.2865 21.2147 11.7131L16.5017 8.22826C16.1573 7.97364 16.0133 7.52802 16.1436 7.12005L17.9367 1.50384C18.2318 0.579432 17.1697 -0.181293 16.3895 0.395634L11.7436 3.83085C11.3903 4.0921 10.9078 4.0921 10.5545 3.83085L5.90865 0.395634C5.1284 -0.181293 4.06635 0.579432 4.36149 1.50384L6.15454 7.12005C6.28479 7.52802 6.1408 7.97364 5.79645 8.22826L1.08343 11.7131C0.307933 12.2865 0.7135 13.5172 1.67797 13.5172H7.46645C7.90157 13.5172 8.28675 13.7985 8.41908 14.213L10.1964 19.7801Z" fill="white"/>
<path d="M10.1964 19.7801C10.4927 20.7079 11.8055 20.7079 12.1017 19.7801L13.8791 14.2131C14.0114 13.7985 14.3966 13.5172 14.8317 13.5172H20.6202C21.5846 13.5172 21.9902 12.2865 21.2147 11.7131L16.5017 8.22826C16.1573 7.97364 16.0133 7.52802 16.1436 7.12005L17.9367 1.50384C18.2318 0.579432 17.1697 -0.181293 16.3895 0.395634L11.7436 3.83085C11.3903 4.0921 10.9078 4.0921 10.5545 3.83085L5.90865 0.395634C5.1284 -0.181293 4.06635 0.579432 4.36149 1.50384L6.15454 7.12005C6.28479 7.52802 6.1408 7.97364 5.79645 8.22826L1.08343 11.7131C0.307933 12.2865 0.7135 13.5172 1.67797 13.5172H7.46645C7.90157 13.5172 8.28675 13.7985 8.41908 14.213L10.1964 19.7801Z" fill="white"/>
<path d="M10.1964 19.7801C10.4927 20.7079 11.8055 20.7079 12.1017 19.7801L13.8791 14.2131C14.0114 13.7985 14.3966 13.5172 14.8317 13.5172H20.6202C21.5846 13.5172 21.9902 12.2865 21.2147 11.7131L16.5017 8.22826C16.1573 7.97364 16.0133 7.52802 16.1436 7.12005L17.9367 1.50384C18.2318 0.579432 17.1697 -0.181293 16.3895 0.395634L11.7436 3.83085C11.3903 4.0921 10.9078 4.0921 10.5545 3.83085L5.90865 0.395634C5.1284 -0.181293 4.06635 0.579432 4.36149 1.50384L6.15454 7.12005C6.28479 7.52802 6.1408 7.97364 5.79645 8.22826L1.08343 11.7131C0.307933 12.2865 0.7135 13.5172 1.67797 13.5172H7.46645C7.90157 13.5172 8.28675 13.7985 8.41908 14.213L10.1964 19.7801Z" fill="#FBE64D"/>
</svg>
