<svg width="46" height="50" viewBox="0 0 46 50" fill="none" xmlns="http://www.w3.org/2000/svg">
<path d="M5.5 50C4.125 50 2.9475 49.51 1.9675 48.53C0.987504 47.55 0.498338 46.3733 0.500004 45V10C0.500004 8.62501 0.990004 7.44751 1.97 6.46751C2.95 5.48751 4.12667 4.99834 5.5 5.00001H8V2.50001C8 1.79167 8.24 1.19751 8.72 0.717508C9.2 0.237508 9.79334 -0.00165802 10.5 8.65052e-06C11.2083 8.65052e-06 11.8025 0.240009 12.2825 0.720009C12.7625 1.20001 13.0017 1.79334 13 2.50001V5.00001H33V2.50001C33 1.79167 33.24 1.19751 33.72 0.717508C34.2 0.237508 34.7933 -0.00165802 35.5 8.65052e-06C36.2083 8.65052e-06 36.8025 0.240009 37.2825 0.720009C37.7625 1.20001 38.0017 1.79334 38 2.50001V5.00001H40.5C41.875 5.00001 43.0525 5.49001 44.0325 6.47001C45.0125 7.45001 45.5017 8.62667 45.5 10V45C45.5 46.375 45.01 47.5525 44.03 48.5325C43.05 49.5125 41.8733 50.0017 40.5 50H5.5ZM5.5 45H40.5V20H5.5V45ZM23 30C22.2917 30 21.6975 29.76 21.2175 29.28C20.7375 28.8 20.4983 28.2067 20.5 27.5C20.5 26.7917 20.74 26.1975 21.22 25.7175C21.7 25.2375 22.2933 24.9983 23 25C23.7083 25 24.3025 25.24 24.7825 25.72C25.2625 26.2 25.5017 26.7933 25.5 27.5C25.5 28.2083 25.26 28.8025 24.78 29.2825C24.3 29.7625 23.7067 30.0017 23 30ZM13 30C12.2917 30 11.6975 29.76 11.2175 29.28C10.7375 28.8 10.4983 28.2067 10.5 27.5C10.5 26.7917 10.74 26.1975 11.22 25.7175C11.7 25.2375 12.2933 24.9983 13 25C13.7083 25 14.3025 25.24 14.7825 25.72C15.2625 26.2 15.5017 26.7933 15.5 27.5C15.5 28.2083 15.26 28.8025 14.78 29.2825C14.3 29.7625 13.7067 30.0017 13 30ZM33 30C32.2917 30 31.6975 29.76 31.2175 29.28C30.7375 28.8 30.4983 28.2067 30.5 27.5C30.5 26.7917 30.74 26.1975 31.22 25.7175C31.7 25.2375 32.2933 24.9983 33 25C33.7083 25 34.3025 25.24 34.7825 25.72C35.2625 26.2 35.5017 26.7933 35.5 27.5C35.5 28.2083 35.26 28.8025 34.78 29.2825C34.3 29.7625 33.7067 30.0017 33 30ZM23 40C22.2917 40 21.6975 39.76 21.2175 39.28C20.7375 38.8 20.4983 38.2067 20.5 37.5C20.5 36.7917 20.74 36.1975 21.22 35.7175C21.7 35.2375 22.2933 34.9983 23 35C23.7083 35 24.3025 35.24 24.7825 35.72C25.2625 36.2 25.5017 36.7933 25.5 37.5C25.5 38.2083 25.26 38.8025 24.78 39.2825C24.3 39.7625 23.7067 40.0017 23 40ZM13 40C12.2917 40 11.6975 39.76 11.2175 39.28C10.7375 38.8 10.4983 38.2067 10.5 37.5C10.5 36.7917 10.74 36.1975 11.22 35.7175C11.7 35.2375 12.2933 34.9983 13 35C13.7083 35 14.3025 35.24 14.7825 35.72C15.2625 36.2 15.5017 36.7933 15.5 37.5C15.5 38.2083 15.26 38.8025 14.78 39.2825C14.3 39.7625 13.7067 40.0017 13 40ZM33 40C32.2917 40 31.6975 39.76 31.2175 39.28C30.7375 38.8 30.4983 38.2067 30.5 37.5C30.5 36.7917 30.74 36.1975 31.22 35.7175C31.7 35.2375 32.2933 34.9983 33 35C33.7083 35 34.3025 35.24 34.7825 35.72C35.2625 36.2 35.5017 36.7933 35.5 37.5C35.5 38.2083 35.26 38.8025 34.78 39.2825C34.3 39.7625 33.7067 40.0017 33 40Z" fill="white"/>
</svg>
