<svg width="52" height="52" viewBox="0 0 52 52" fill="none" xmlns="http://www.w3.org/2000/svg">
<path d="M13.0837 5.33341C13.0837 2.46591 10.7845 0.166748 7.91699 0.166748C5.04949 0.166748 2.75032 2.46591 2.75032 5.33341C2.75032 8.20091 5.04949 10.5001 7.91699 10.5001C10.7845 10.5001 13.0837 8.20091 13.0837 5.33341ZM21.3245 6.62508C20.2653 6.62508 19.3612 7.27091 18.9478 8.25258C18.3766 9.68226 17.389 10.9073 16.113 11.7687C14.837 12.6301 13.3315 13.0882 11.792 13.0834H4.04199C1.89783 13.0834 0.166992 14.8142 0.166992 16.9584V23.4167H15.667V17.5784C17.4856 17.0048 19.153 16.0322 20.5475 14.7316C21.942 13.4309 23.0283 11.8352 23.727 10.0609C24.3987 8.40758 23.107 6.62508 21.3245 6.62508ZM44.0836 38.9167C46.9511 38.9167 49.2503 36.6176 49.2503 33.7501C49.2503 30.8826 46.9511 28.5834 44.0836 28.5834C41.2161 28.5834 38.917 30.8826 38.917 33.7501C38.917 36.6176 41.2161 38.9167 44.0836 38.9167ZM47.9586 41.5001H40.2087C36.9537 41.5001 34.1895 39.5109 33.0528 36.6692C32.8672 36.1898 32.5408 35.7778 32.1166 35.4873C31.6924 35.1968 31.1903 35.0415 30.6762 35.0417C28.8937 35.0417 27.602 36.8242 28.2478 38.4776C28.9505 40.2495 30.0381 41.8431 31.432 43.1432C32.8259 44.4433 34.4913 45.4174 36.3078 45.9951V51.8334H51.8078V45.3751C51.8336 43.2309 50.1028 41.5001 47.9586 41.5001ZM39.5628 23.6492C39.5628 23.6492 39.5628 23.6234 39.5887 23.6492C38.2386 23.9975 37.0065 24.7011 36.0206 25.687C35.0347 26.6729 34.3311 27.905 33.9828 29.2551V29.2292C33.6987 30.3401 32.6653 31.1667 31.4512 31.1667C30.0303 31.1667 28.8678 30.0042 28.8678 28.5834C28.8678 28.4542 28.9195 28.2217 28.9195 28.2217C29.4691 25.8692 30.6687 23.7184 32.3815 22.0147C34.0944 20.311 36.2515 19.1229 38.607 18.5859C38.7103 18.5859 38.8137 18.5601 38.917 18.5601C40.3378 18.5601 41.5003 19.7226 41.5003 21.1434C41.5003 22.3317 40.6737 23.3651 39.5628 23.6492ZM41.5003 10.6551C41.5003 11.9726 40.5445 13.0317 39.2786 13.2126C31.0378 14.2201 24.5537 20.7301 23.5462 28.9709C23.4391 29.6076 23.098 30.1813 22.5897 30.5795C22.0814 30.9776 21.4427 31.1714 20.7989 31.1229C20.1551 31.0744 19.5527 30.787 19.1098 30.3172C18.667 29.8473 18.4157 29.229 18.4053 28.5834V28.3509C19.697 17.7076 28.1962 9.28591 38.8653 8.07175H38.8911C40.3378 8.07175 41.5003 9.23425 41.5003 10.6551Z" fill="white"/>
</svg>
